<svg width="33" height="32" viewBox="0 0 33 32" fill="none" xmlns="http://www.w3.org/2000/svg">
<path d="M8.50002 18.4934C7.14796 18.2031 5.96153 17.3989 5.19101 16.2506C4.42049 15.1023 4.12611 13.6996 4.36999 12.3384C4.61386 10.9772 5.37692 9.76393 6.49818 8.95454C7.61945 8.14516 9.01126 7.80294 10.38 8.00008C10.7169 7.23559 11.1914 6.53957 11.78 5.94674C12.3993 5.3259 13.135 4.83333 13.9449 4.49724C14.7548 4.16116 15.6231 3.98816 16.5 3.98816C17.3769 3.98816 18.2452 4.16116 19.0551 4.49724C19.8651 4.83333 20.6007 5.3259 21.22 5.94674C21.8086 6.53957 22.2832 7.23559 22.62 8.00008C23.9888 7.80294 25.3806 8.14516 26.5019 8.95454C27.6231 9.76393 28.3862 10.9772 28.63 12.3384C28.8739 13.6996 28.5795 15.1023 27.809 16.2506C27.0385 17.3989 25.8521 18.2031 24.5 18.4934V28.0001H8.50002V18.4934Z" stroke="#6E6E6E" stroke-width="2.66667" stroke-linecap="round" stroke-linejoin="round"/>
<path d="M8.5 22.6666H24.5" stroke="#6E6E6E" stroke-width="2.66667" stroke-linecap="round" stroke-linejoin="round"/>
</svg>
