<svg width="33" height="32" viewBox="0 0 33 32" fill="none" xmlns="http://www.w3.org/2000/svg">
<path d="M9.83331 26.6666H23.1666" stroke="#6E6E6E" stroke-width="2.66667" stroke-linecap="round" stroke-linejoin="round"/>
<path d="M13.8333 26.6667C21.1666 23.3334 14.9 18.1334 17.8333 13.3334" stroke="#6E6E6E" stroke-width="2.66667" stroke-linecap="round" stroke-linejoin="round"/>
<path d="M13.1666 12.5333C14.6333 13.6 15.5666 15.4666 16.2333 17.4666C13.5666 18 11.5666 18 9.83331 17.0666C8.23331 16.2666 6.76665 14.5333 5.83331 11.4666C9.56665 10.8 11.7 11.4666 13.1666 12.5333Z" stroke="#6E6E6E" stroke-width="2.66667" stroke-linecap="round" stroke-linejoin="round"/>
<path d="M19.3 8.00004C18.2835 9.58878 17.7721 11.4482 17.8334 13.3334C20.3667 13.2 22.2334 12.5334 23.5667 11.4667C24.9 10.1334 25.7 8.40004 25.8334 5.33337C22.2334 5.46671 20.5 6.66671 19.3 8.00004Z" stroke="#6E6E6E" stroke-width="2.66667" stroke-linecap="round" stroke-linejoin="round"/>
</svg>
