<svg width="33" height="32" viewBox="0 0 33 32" fill="none" xmlns="http://www.w3.org/2000/svg">
<path d="M24.2333 25.6L21.8333 14.6667L26.5 10C28.5 8 29.1667 5.33333 28.5 4C27.1667 3.33333 24.5 4 22.5 6L17.8333 10.6667L6.9 8.26667C6.23333 8.13333 5.7 8.4 5.43333 8.93333L5.03333 9.6C4.76667 10.2667 4.9 10.9333 5.43333 11.3333L12.5 16L9.83333 20H5.83333L4.5 21.3333L8.5 24L11.1667 28L12.5 26.6667V22.6667L16.5 20L21.1667 27.0667C21.5667 27.6 22.2333 27.7333 22.9 27.4667L23.5667 27.2C24.1 26.8 24.3667 26.2667 24.2333 25.6Z" stroke="#6E6E6E" stroke-width="2.66667" stroke-linecap="round" stroke-linejoin="round"/>
</svg>
